<?xml version="1.0" encoding="UTF-8"?>
<svg id="Layer_2" data-name="Layer 2" xmlns="http://www.w3.org/2000/svg" viewBox="0 0 134.15 144.91">
  <defs>
    <style>
      .cls-1 {
        fill: #2d3038;
      }

      .cls-1, .cls-2 {
        stroke-width: 0px;
      }

      .cls-2 {
        fill: #fdfdfd;
      }
    </style>
  </defs>
  <g id="Layer_1-2" data-name="Layer 1">
    <g id="ArchiveLogo">
      <path class="cls-1" d="M14.29,1.01c6.96-.51-3.75,2.18-5.25,14.75-.62,5.19-.5,98.53,0,104.5.7,8.43,3.05,18.13,9.25,24.25-9.62.76-16.7-10.93-17.75-19.25C-.15,119.83-.21,21.18.54,15.76,1.47,8.91,7.09,1.54,14.29,1.01Z"/>
      <g>
        <path class="cls-1" d="M39.79,0l93.75.75c-1.46,25.14,1.93,113.82,0,129-1.18,9.25-7.38,13.77-16.25,14.75-4.12.46-78.89.61-83,0-6.89-1.02-13.23-7.36-14.25-14.25-.85-5.74-.92-110.27,0-116C21.54,4.91,30.99-.24,39.79,0Z"/>
        <g>
          <path class="cls-2" d="M40.29,10.01l84.25.75c-1.1,19.76,1.45,105.63,0,114.5-.66,4.05-4.71,8.52-8.75,9.25-4.03.73-78,.89-82,0-3.15-.7-4.36-4.47-4.75-7.25-.75-5.37-.97-103.16,0-108.5.89-4.9,6.44-8.59,11.25-8.75Z"/>
          <path class="cls-1" d="M46.79,112.01c14.9-1.28,48.73.96,67,0l.75,9.25-73.25.75c-1.59-9.29-2.55-9.31,5.5-10Z"/>
          <path class="cls-1" d="M41.79,23.01h72l.25,9.25-72.25.25v-9.5Z"/>
          <g>
            <path class="cls-1" d="M45.79,40.51c1.47-.36,15.32-.21,15.75.75.21,8.98,5.26,19.54,8.25,28.25-.31-5.11,11.53-24.65,13.75-26.75,2.9-2.74,3.64-1.58,7.75-1.75,6.34,14.33,17.55,53.02,22.75,62.75.42.79,1.59.82,1.5,1h-12.5c1.07-3.4-7.89-26.76-9.25-27.25-6.86,0-13.67-.18-20.5.5-1.77,1.19,8.29,24.28,9.5,27.5l-10.75-.75-7.25-20.25c-2.8,4.76-17.84,20.1-7,21h-18c9.16-7.95,15.1-18.77,21.75-28.75l-9-28c-3.53-3.27-10.99-1.48-11.5-3,.78-1.59,3.11-4.84,4.75-5.25Z"/>
            <path class="cls-2" d="M84.29,53.01l1.25.25,6,17c-.89,2.23-18.12-1.12-20.75,2.25-2.46-1.86,12.4-17.15,13.5-19.5Z"/>
          </g>
        </g>
      </g>
    </g>
  </g>
</svg>