<?xml version="1.0" encoding="utf-8"?>
<!-- Generator: Adobe Illustrator 28.1.0, SVG Export Plug-In . SVG Version: 6.00 Build 0)  -->
<svg version="1.1" id="Layer_1" xmlns="http://www.w3.org/2000/svg" xmlns:xlink="http://www.w3.org/1999/xlink" x="0px" y="0px"
	 viewBox="0 0 600 180" style="enable-background:new 0 0 600 180;" xml:space="preserve">
<style type="text/css">
	.st0{fill:none;}
	.st1{font-family:'StamAshkenazCLM';}
	.st2{font-size:200px;}
</style>
<path d="M83.5,108l-12.7,62.1c0,2-16.7-59.5-16-61.5c12.7-36.8,2-53.5-8.7-53.5H21.4c0-6,1.3-26.1-11.4-45.4h60.8
	C54.8,51.9,74.1,85.3,83.5,108L83.5,108z M77.5,9.8c8.7,20,6.7,41.4-0.7,61.5c-1.3,4,1.3,14,4,13.4c6.7-18,9.4-27.4,26.1-29.4h22.7
	c-2.7-5.3-11.4-20.7,0.7-45.4L77.5,9.8z M270.6,39.9c0-5.3-1.3-20.7-8-30.1H142.3c-10.7,16-6.7,33.4,0.7,45.4h94.9
	c14.7,0,20.7,11.4,20,30.7c-0.7,8.7-6.7,22.1-11.4,28.7c-0.7,1.3,10,38.1,14,55.5l1.3-2c2.7-4.7,7.4-28.1,9.4-42.8
	c1.3-14-4-30.1-4.7-38.1C265.3,69.3,271.3,47.9,270.6,39.9L270.6,39.9z M450.3,80c0,0-2,18-9.4,37.4c-2.7,12-0.7,20.7,2,32.1
	c2,10,4.7,14,6.7,20.7h2.7c15.4-36.1,13.4-54.1,0-90.2H450.3z M302.7,70.6L439,170.2c0-2.7-6.7-20.7-8.7-30.1
	c-1.3-11.4-0.7-14.7,1.3-25.4c-16-10.7-28.1-20.7-48.8-34.1c-2.7-2-5.3-8-4-12.7c0.7-6.7,6.7-12.7,12.7-12.7h38.1
	c0,0-14-22.7,0-45.4h-54.8c0,4.7-2,8.7-2,16c0.7,8,6,14.7,2.7,26.7c-2.7,9.4-6,13.4-8.7,14.7L288,9.8h-10.7l-0.7,0.7
	c5.3,10.7,8,24.7,6.7,37.4c-1.3,16-4,18.7-4,32.7c0,14.7,5.3,27.4,4.7,42.1c-1.3,22.1-6,38.8-8,45.4c-0.7,2,0.7,2,0.7,2h65.5
	c-12-22.7-7.4-38.8-7.4-38.8H310c-18,0.7-19.4-24.7-17.4-41.4C294,77.3,302,71.3,302.7,70.6L302.7,70.6z M581.3,87.3
	c-3.3-14-0.7-20.7,5.3-32.7c2.7-5.3,3.3-20.7,3.3-22.7c0,0-0.7-22-11.4-22H443c0,0-15.4,20,0,45.4h115.6c10-0.7,12.7,12,12.7,21.4
	c0,9.4-4.7,24.1-7.4,32.1c-2,6.7,7.4,36.8,12.7,61.5h2c0.7-2,10.7-53.5,10-60.8L581.3,87.3z"/>
<rect x="-556.3" y="332.2" class="st0" width="443" height="186"/>
<text transform="matrix(1 0 0 1 -556.3484 432.1816)" class="st2" style="font-family:'NewPeninimMT';">ןויכרא</text>
<rect x="70.1" y="448.1" class="st0" width="443" height="186"/>
<text transform="matrix(1 0 0 1 70.0528 589.5278)" class="st2" style="font-family:'KeterYG-Medium';">ןויכרא</text>
<rect x="-37" y="254.1" class="st0" width="583.4" height="186"/>
<text transform="matrix(1 0 0 1 -37.0001 393.1293)" class="st2" style="font-family:'HadasimCLM-Regular';">ןויכרא</text>
<rect x="83.5" y="-203.7" class="st0" width="583.4" height="186"/>
<text transform="matrix(1 0 0 1 83.5039 -27.6729)" class="st1 st2">ןויכרא</text>
</svg>
