<?xml version="1.0" encoding="UTF-8"?>
<svg width="600" height="180" version="1.1" xmlns="http://www.w3.org/2000/svg">
 <path d="m83.504 108.02-12.696 62.143c0 2.0046-16.705-59.469-16.037-61.475 12.696-36.751 2.0046-53.456-8.6866-53.456h-24.724c0-6.0138 1.3364-26.059-11.359-45.438h60.806c-16.037 42.097 3.341 75.507 12.696 98.225zm-6.0138-98.225c8.6866 20.046 6.682 41.429-0.6682 61.475-1.3364 4.0092 1.3364 14.032 4.0092 13.364 6.682-18.042 9.3548-27.396 26.059-29.4h22.719c-2.6728-5.3456-11.359-20.714 0.66821-45.438zm193.11 30.069c0-5.3456-1.3364-20.714-8.0184-30.069h-120.27c-10.691 16.037-6.682 33.41 0.66821 45.438h94.884c14.701 0 20.714 11.359 20.046 30.737-0.6682 8.6866-6.682 22.05-11.359 28.733-0.66821 1.3364 10.023 38.088 14.032 55.461l1.3364-2.0046c2.6728-4.6774 7.3502-28.065 9.3548-42.764 1.3364-14.032-4.0092-30.069-4.6774-38.088-1.3364-18.042 4.6774-39.423 4.0092-47.442zm179.74 40.092s-2.0046 18.042-9.3548 37.419c-2.6728 12.027-0.66818 20.714 2.0046 32.074 2.0046 10.023 4.6774 14.032 6.682 20.714h2.6728c15.368-36.082 13.364-54.124 0-90.207zm-147.67-9.3548 136.31 99.562c0-2.6728-6.682-20.714-8.6866-30.069-1.3364-11.359-0.6682-14.701 1.3364-25.392-16.037-10.691-28.065-20.714-48.779-34.078-2.6728-2.0046-5.3456-8.0184-4.0092-12.696 0.66821-6.682 6.682-12.696 12.696-12.696h38.088s-14.032-22.718 0-45.438h-54.793c0 4.6774-2.0046 8.6866-2.0046 16.037 0.66819 8.0184 6.0138 14.701 2.6728 26.728-2.6728 9.3548-6.0138 13.364-8.6866 14.701l-78.848-57.465h-10.691l-0.66821 0.6682c5.3456 10.691 8.0184 24.724 6.682 37.419-1.3364 16.037-4.0092 18.709-4.0092 32.741 0 14.701 5.3456 27.396 4.6774 42.097-1.3364 22.05-6.0138 38.756-8.0184 45.438-0.66819 2.0046 0.6682 2.0046 0.6682 2.0046h65.484c-12.027-22.718-7.3502-38.756-7.3502-38.756h-24.724c-18.042 0.6682-19.378-24.724-17.373-41.429 1.3364-12.696 9.3548-18.709 10.023-19.378zm278.64 16.705c-3.341-14.032-0.66821-20.714 5.3456-32.741 2.6728-5.3456 3.341-20.714 3.341-22.718 0 0-0.6682-22.05-11.359-22.05h-135.65s-15.368 20.046 0 45.438h115.6c10.023-0.6682 12.696 12.027 12.696 21.383 0 9.3548-4.6774 24.055-7.3502 32.074-2.0046 6.682 7.3502 36.751 12.696 61.475h2.0046c0.6682-2.0046 10.691-53.456 10.023-60.806z"/>
</svg>
