<?xml version="1.0" encoding="UTF-8"?>
<svg width="600" height="600" version="1.1" xmlns="http://www.w3.org/2000/svg">
 <path d="m589.99 300a281.51 281.51 0 0 1-22.66 112.63 292.3 292.3 0 0 1-154.58 154.71 291.89 291.89 0 0 1-225.53 0 292.3 292.3 0 0 1-154.58-154.71 291.62 291.62 0 0 1 0-225.39 292.71 292.71 0 0 1 154.58-154.58 291.89 291.89 0 0 1 225.53 0 292.71 292.71 0 0 1 154.58 154.58 282.18 282.18 0 0 1 22.66 112.77zm-139.33 99.137c-0.80869-5.9349-1.3489-10.926-1.7535-14.702a40.466 40.466 0 0 1 0.67475-11.33 53.954 53.954 0 0 1 1.0791-11.33c0.80869-3.7769 1.4838-8.2281 2.2931-13.488a196.12 196.12 0 0 1-21.446-15.512q-10.116-7.8234-21.446-15.781c-7.5536-5.2605-15.377-10.926-23.2-16.995-7.8234-6.0699-16.86-12.544-26.977-19.288a19.828 19.828 0 0 1-6.2047-9.5772 27.786 27.786 0 0 1-1.7535-14.163 32.777 32.777 0 0 1 9.172-16.995 20.098 20.098 0 0 1 14.702-6.8791h74.727q-21.446-56.652-1.079-89.431h-105.21a61.373 61.373 0 0 1-1.7535 13.488 59.619 59.619 0 0 0 0 18.749 35.475 35.475 0 0 0 1.6187 10.791 61.373 61.373 0 0 1 2.8325 11.87 105.75 105.75 0 0 1 1.7536 12.409 46.266 46.266 0 0 1-1.7536 15.916 108.85 108.85 0 0 1-8.498 20.367 20.638 20.638 0 0 1-8.498 9.0372c-12.005-9.0372-25.224-18.884-39.656-29.405l-41.815-30.619c-13.488-10.521-26.977-20.368-38.577-29.405-11.601-9.0372-21.852-16.591-29.405-22.66h-20.907c-0.80869 0-1.214 0-1.214 1.0791a80.122 80.122 0 0 1 7.4187 16.995 97.653 97.653 0 0 1 3.9116 18.21c0.8087 5.9349 1.3489 12.274 1.7536 18.614a107.91 107.91 0 0 1 0 18.749c-0.80869 7.5536-1.6187 13.488-2.2932 19.153-0.67476 5.6652-1.4837 10.251-2.293 14.837a101.84 101.84 0 0 0-1.7535 12.409v16.995a123.82 123.82 0 0 0 1.7535 21.582c1.079 6.7443 2.0233 13.488 2.8325 20.368 0.8087 6.8791 2.5629 13.488 3.3722 20.367a94.424 94.424 0 0 1 0 21.446c-0.80869 10.656-1.7535 20.638-2.8325 30.079-1.0792 9.4415-2.4279 17.94-3.9116 25.493-1.4839 7.5536-3.1024 15.242-4.5862 20.907a61.912 61.912 0 0 1-4.5862 13.488 5.2606 5.2606 0 0 0 1.214 5.6652h123.42a157.54 157.54 0 0 1-12.409-79.313h-47.48a25.224 25.224 0 0 1-19.693-9.172 46.805 46.805 0 0 1-10.791-20.367 102.92 102.92 0 0 1-4.0465-25.493 129.36 129.36 0 0 1 1.7535-26.977 50.987 50.987 0 0 1 10.251-28.326c5.2605-6.0698 8.228-9.0372 9.0372-9.0372l258.17 191.14c0-0.8087 0-1.214 1.0791-1.214s0.80869 0 0-1.0791a125.58 125.58 0 0 0-5.1257-13.488c-1.8883-4.1815-3.507-8.498-5.1256-13.488-1.6186-4.9908-2.8325-9.172-3.9117-13.488-1.079-4.3162-2.0233-8.0931-2.8325-11.195z" fill="#0b7eb5"/>
</svg>
